<svg width="22" height="22" viewBox="0 0 22 22" fill="none" xmlns="http://www.w3.org/2000/svg">
<g opacity="0.45">
<path d="M0.637686 1.91278C0.285513 1.56061 0.285545 0.989617 0.637756 0.637486C0.98992 0.285404 1.56082 0.285445 1.91293 0.637579L10.2929 9.01805C10.6834 9.40861 11.3166 9.40861 11.7071 9.01806L20.0871 0.637587C20.4392 0.28545 21.0101 0.285414 21.3623 0.637505C21.7145 0.989631 21.7145 1.5606 21.3624 1.91278L12.9824 10.2933C12.5919 10.6838 12.5919 11.317 12.9824 11.7075L21.3623 20.0873C21.7145 20.4394 21.7145 21.0104 21.3622 21.3625C21.0101 21.7146 20.4392 21.7146 20.0871 21.3625L11.7071 12.9826C11.3166 12.592 10.6834 12.592 10.2929 12.9826L1.91291 21.3625C1.5608 21.7146 0.989939 21.7146 0.637791 21.3626C0.285564 21.0104 0.28554 20.4394 0.637733 20.0873L9.01816 11.7075C9.40872 11.317 9.40873 10.6838 9.01819 10.2933L0.637686 1.91278Z" fill="#75809C" stroke="#75809C" stroke-width="0.4"/>
</g>
</svg>
